# xmcd
#
# Track frame offsets: 
#        150
#        14664
#        26977
#        39259
#        52022
#        65775
#        80964
#        91994
#        104672
#        118823
#        130357
#        140273
#        159068
#        187928
#        200541
#        212225
#        224813
#        233420
#        244250
#        255161
#        266982
#        279907
#        293241
#        306279
#        318206
#
# Disc length: 4437 seconds
#
# Revision: 2
# Processed by: cddbd v1.5.2PL0 Copyright (c) Steve Scherf et al.
# Submitted via: ExactAudioCopy v1.0b3
#
DISCID=80115319
DTITLE=Various Artist - All Night Long - The Crown Records Story [CD2]
DYEAR=2014
DGENRE=Blues
TTITLE0=The Teen Queens - Eddie My Love
TTITLE1=The Cadets - Fools Rush In
TTITLE2=Elmore James - Blues Before Sunrise
TTITLE3=Marvin and Johnny - Tick Tock
TTITLE4=Pee Wee Crayton - Blues After Hours
TTITLE5=Jimmy McCracklin - Oh Baby
TTITLE6=Etta James - Good Rockin' Daddy
TTITLE7=The Jacks - Why Don't You Write Me?
TTITLE8=John Lee Hooker - Boogie Chillen
TTITLE9=Charlie Barnet and His Orchestra - The Mole
TTITLE10=Willard McDaniel - Into Each Life Some Rain Must Fall
TTITLE11=Howlin' Wolf - House Rockin' Boogie
TTITLE12=Coleman Hawkins and His Orchestra - Moodsville
TTITLE13=B. B. King - Ten Long Years
TTITLE14=Pete Johnson and Hadda Brooks - Swingin' the Boogie
TTITLE15=Jimmy Witherspoon - Good Jumpin'
TTITLE16=Kay Starr - Ain't Misbehavin'
TTITLE17=The Kings of Dixieland - Somebody Stole My Gal
TTITLE18=The Polynesians - Mauna Wili Hula
TTITLE19=Louis Polliemon and Lord Preston Epps - Calypso Tina
TTITLE20=The Princeton Trio - Yellow Rose Of Texas
TTITLE21=Aaron Collins - Jamaica Farewell
TTITLE22=Johnny Williams and The Playboys - I Won't Be Home Anymore
TTITLE23=Sterling Blythe - Love For Gold
TTITLE24=Jesse Belvin - Goodnight My Love-1956
EXTD=
EXTT0=
EXTT1=
EXTT2=
EXTT3=
EXTT4=
EXTT5=
EXTT6=
EXTT7=
EXTT8=
EXTT9=
EXTT10=
EXTT11=
EXTT12=
EXTT13=
EXTT14=
EXTT15=
EXTT16=
EXTT17=
EXTT18=
EXTT19=
EXTT20=
EXTT21=
EXTT22=
EXTT23=
EXTT24=
PLAYORDER=
